<svg id="visual" viewBox="0 0 960 540" width="960" height="540" xmlns="http://www.w3.org/2000/svg" xmlns:xlink="http://www.w3.org/1999/xlink" version="1.1"><rect x="0" y="0" width="960" height="540" fill="#001220"></rect><path d="M0 337L22.8 337.5C45.7 338 91.3 339 137 340.7C182.7 342.3 228.3 344.7 274 354.2C319.7 363.7 365.3 380.3 411.2 384.8C457 389.3 503 381.7 548.8 370.8C594.7 360 640.3 346 686 342.3C731.7 338.7 777.3 345.3 823 352C868.7 358.7 914.3 365.3 937.2 368.7L960 372L960 541L937.2 541C914.3 541 868.7 541 823 541C777.3 541 731.7 541 686 541C640.3 541 594.7 541 548.8 541C503 541 457 541 411.2 541C365.3 541 319.7 541 274 541C228.3 541 182.7 541 137 541C91.3 541 45.7 541 22.8 541L0 541Z" fill="#009473"></path><path d="M0 363L22.8 361.7C45.7 360.3 91.3 357.7 137 364.8C182.7 372 228.3 389 274 397.5C319.7 406 365.3 406 411.2 405C457 404 503 402 548.8 402.3C594.7 402.7 640.3 405.3 686 407.5C731.7 409.7 777.3 411.3 823 402.3C868.7 393.3 914.3 373.7 937.2 363.8L960 354L960 541L937.2 541C914.3 541 868.7 541 823 541C777.3 541 731.7 541 686 541C640.3 541 594.7 541 548.8 541C503 541 457 541 411.2 541C365.3 541 319.7 541 274 541C228.3 541 182.7 541 137 541C91.3 541 45.7 541 22.8 541L0 541Z" fill="#007274"></path><path d="M0 452L22.8 451.3C45.7 450.7 91.3 449.3 137 443.5C182.7 437.7 228.3 427.3 274 428.3C319.7 429.3 365.3 441.7 411.2 438.8C457 436 503 418 548.8 409.8C594.7 401.7 640.3 403.3 686 408.8C731.7 414.3 777.3 423.7 823 427.3C868.7 431 914.3 429 937.2 428L960 427L960 541L937.2 541C914.3 541 868.7 541 823 541C777.3 541 731.7 541 686 541C640.3 541 594.7 541 548.8 541C503 541 457 541 411.2 541C365.3 541 319.7 541 274 541C228.3 541 182.7 541 137 541C91.3 541 45.7 541 22.8 541L0 541Z" fill="#005060"></path><path d="M0 478L22.8 471.3C45.7 464.7 91.3 451.3 137 445.2C182.7 439 228.3 440 274 441.2C319.7 442.3 365.3 443.7 411.2 448.3C457 453 503 461 548.8 466.2C594.7 471.3 640.3 473.7 686 473C731.7 472.3 777.3 468.7 823 470C868.7 471.3 914.3 477.7 937.2 480.8L960 484L960 541L937.2 541C914.3 541 868.7 541 823 541C777.3 541 731.7 541 686 541C640.3 541 594.7 541 548.8 541C503 541 457 541 411.2 541C365.3 541 319.7 541 274 541C228.3 541 182.7 541 137 541C91.3 541 45.7 541 22.8 541L0 541Z" fill="#022f42"></path><path d="M0 497L22.8 498.5C45.7 500 91.3 503 137 502.3C182.7 501.7 228.3 497.3 274 495.8C319.7 494.3 365.3 495.7 411.2 496.8C457 498 503 499 548.8 498C594.7 497 640.3 494 686 495.2C731.7 496.3 777.3 501.7 823 505.3C868.7 509 914.3 511 937.2 512L960 513L960 541L937.2 541C914.3 541 868.7 541 823 541C777.3 541 731.7 541 686 541C640.3 541 594.7 541 548.8 541C503 541 457 541 411.2 541C365.3 541 319.7 541 274 541C228.3 541 182.7 541 137 541C91.3 541 45.7 541 22.8 541L0 541Z" fill="#001122"></path></svg>